<?xml version="1.0" encoding="UTF-8"?>
<svg width="752pt" height="752pt" version="1.1" viewBox="0 0 752 752" xmlns="http://www.w3.org/2000/svg">
 <g>
  <path d="m223.66 593.28c1.8633 0.80078 4.0742 0.43359 5.5781-1.0117l70.164-67h140.7c17.938 0 32.531-14.59 32.531-32.535v-152.58l77.152 34.895c1.5078 0.67188 3.1523 0.58203 4.5234-0.14062 1.4023-0.73828 2.3906-2.0898 2.6641-3.6523l36.648-206.93c0.69531-3.9062-3.2695-7.1406-6.9805-5.6484-0.039062 0.015625-0.082031 0-0.11719 0.015625l-253.6 108.79c-1.875 0.80469-3.1016 2.6406-3.1211 4.6836-0.019532 2.0391 1.168 3.8945 3.0273 4.7383l60.5 27.359h-202.51c-17.938 0-32.531 14.59-32.531 32.535v155.94c0 17.941 14.594 32.535 32.531 32.535h29.719v63.281c0 2.0547 1.2305 3.918 3.1211 4.7305zm230.74-268.39c-0.40234 0.51172-0.78906 1.0469-1.0156 2.207l-10.402 53.258-24.457-71.355 136.69-111.71zm93.598 38.043-81.434-36.832 113.37-143.48zm8.9492-180.35-145.24 118.68-63.984-28.934zm-366.12 332.39c-12.262 0-22.234-9.9727-22.234-22.238l-0.003906-155.94c0-12.266 9.9727-22.238 22.234-22.238h218.73l29.934 87.328c0.71875 2.0898 2.6797 3.4805 4.8672 3.4805 0.11719 0 0.23828-0.007813 0.35547-0.011719 2.3242-0.16016 4.2539-1.8633 4.7031-4.1484l12.828-65.684c0.023437 0.42578 0.10938 0.83984 0.10938 1.2773v155.94c0 12.266-9.9727 22.238-22.234 22.238l-142.77-0.003906c-1.3242 0-2.5977 0.50781-3.5547 1.4258l-62.949 60.117v-56.395c0-2.8438-2.3047-5.1484-5.1484-5.1484z"/>
  <path d="m397.05 442.12c15.078 0 27.348-12.266 27.348-27.348s-12.27-27.348-27.348-27.348c-15.082 0-27.352 12.266-27.352 27.348 0.003906 15.082 12.273 27.348 27.352 27.348zm0-44.398c9.4023 0 17.051 7.6484 17.051 17.051 0 9.4023-7.6484 17.051-17.051 17.051-9.4023 0-17.055-7.6484-17.055-17.051 0-9.4062 7.6523-17.051 17.055-17.051z"/>
  <path d="m315.45 442.12c15.078 0 27.348-12.266 27.348-27.348s-12.27-27.348-27.348-27.348c-15.078 0-27.348 12.266-27.348 27.348s12.27 27.348 27.348 27.348zm0-44.398c9.4023 0 17.051 7.6484 17.051 17.051 0 9.4023-7.6484 17.051-17.051 17.051-9.4023 0-17.051-7.6484-17.051-17.051 0-9.4062 7.6484-17.051 17.051-17.051z"/>
  <path d="m261.18 414.77c0-15.082-12.27-27.348-27.348-27.348-15.078 0-27.348 12.266-27.348 27.348s12.27 27.348 27.348 27.348c15.078 0 27.348-12.266 27.348-27.348zm-44.398 0c0-9.4023 7.6484-17.051 17.051-17.051 9.4023 0 17.051 7.6484 17.051 17.051 0 9.4023-7.6484 17.051-17.051 17.051-9.4023 0-17.051-7.6484-17.051-17.051z"/>
 </g>
</svg>
